<svg xmlns="http://www.w3.org/2000/svg" width="512" height="512" viewBox="0 0 512 512">
<g>
<path d="M 260.27 500.25 C258.96,501.70 257.13,501.97 249.60,501.83 C238.38,501.62 235.35,501.36 221.50,499.42 C183.67,494.12 148.82,480.45 116.00,458.04 C108.22,452.72 110.05,454.17 96.04,442.25 C85.01,432.87 64.03,410.69 64.01,408.38 C64.00,407.77 63.10,406.13 62.00,404.73 C60.90,403.33 60.00,401.26 60.00,400.13 C60.00,399.00 59.15,397.61 58.11,397.06 C55.82,395.83 50.99,387.85 51.02,385.32 C51.02,384.32 51.46,382.83 51.98,382.00 C52.74,380.79 53.14,381.09 53.99,383.53 C54.68,385.53 56.53,387.38 59.40,388.95 C61.80,390.26 64.56,392.72 65.54,394.41 C67.90,398.52 70.04,400.83 86.60,417.10 C103.67,433.88 114.09,442.53 128.55,451.94 C151.53,466.90 174.87,476.93 202.00,483.49 C212.62,486.06 239.82,490.00 246.95,490.00 L 250.83 490.00 L 251.56 482.25 C252.64,470.68 251.35,446.86 249.08,436.50 C245.63,420.76 241.00,407.04 236.62,399.60 C233.86,394.90 233.81,394.60 235.37,391.95 C236.27,390.43 237.00,388.91 237.00,388.57 C237.00,387.89 231.90,385.60 230.85,385.80 C230.50,385.87 230.44,385.03 230.73,383.92 C231.45,381.17 234.18,381.89 235.80,385.26 C236.52,386.77 237.65,388.01 238.30,388.03 C240.01,388.08 243.28,391.07 244.82,394.00 C246.16,396.54 246.98,398.03 252.79,408.29 C259.26,419.73 264.00,444.59 264.00,467.09 C264.00,482.90 262.30,497.99 260.27,500.25 ZM 424.60 480.23 C424.00,480.64 422.83,480.95 422.00,480.92 C418.65,480.81 373.99,469.23 372.65,468.13 C369.36,465.39 370.12,462.91 381.05,440.95 C390.03,422.90 392.37,418.94 394.39,418.44 C398.29,417.46 400.39,418.31 401.43,421.29 C402.28,423.70 401.57,425.75 396.00,437.00 C392.48,444.11 389.87,450.20 390.20,450.53 C391.88,452.21 413.19,438.36 426.62,426.86 C434.90,419.77 444.87,408.90 452.57,398.58 C455.39,394.80 460.25,389.31 465.51,383.96 C466.88,382.57 468.00,380.63 468.00,379.65 C468.00,378.68 468.38,378.12 468.85,378.41 C470.77,379.59 469.20,387.96 466.12,392.96 C464.40,395.75 463.00,398.85 463.00,399.85 C463.00,400.85 461.20,404.24 459.00,407.38 C456.80,410.52 455.00,413.52 455.00,414.05 C455.00,414.57 449.71,420.32 443.25,426.82 C431.35,438.79 416.09,450.62 403.75,457.44 C400.04,459.49 397.00,461.53 397.00,461.96 C397.00,462.40 401.84,463.96 407.75,465.43 C425.94,469.95 425.60,469.82 426.84,472.55 C428.05,475.20 427.06,478.59 424.60,480.23 Z" fill="rgb(42,199,223)"/>
<path d="M 255.56 414.26 C254.68,412.01 253.75,410.00 252.79,408.29 C246.98,398.03 246.16,396.54 244.82,394.00 C243.28,391.07 240.01,388.08 238.30,388.03 C237.65,388.01 236.52,386.77 235.80,385.26 C234.18,381.89 231.45,381.17 230.73,383.92 C230.44,385.03 230.50,385.87 230.85,385.80 C231.90,385.60 237.00,387.89 237.00,388.57 C237.00,388.91 236.27,390.43 235.37,391.95 C233.81,394.60 233.86,394.90 236.62,399.60 C241.00,407.04 245.63,420.76 249.08,436.50 C249.33,437.63 249.56,438.91 249.79,440.32 C246.92,424.65 241.31,409.60 233.74,397.50 C221.23,377.48 197.54,357.73 163.00,338.50 C104.01,305.66 87.26,294.34 65.42,272.55 C51.67,258.83 42.75,247.63 35.31,234.76 C28.35,222.72 28.15,223.15 31.61,242.75 C38.28,280.56 59.31,316.78 88.94,341.43 C102.59,352.80 115.49,360.55 136.22,369.83 C141.35,372.13 143.02,375.22 141.09,378.84 C138.55,383.58 134.55,382.76 116.50,373.79 C74.66,353.00 40.73,314.01 26.39,270.25 C24.47,264.37 22.63,259.32 22.31,259.03 C21.42,258.22 22.90,278.21 24.60,290.00 C31.49,337.79 53.12,381.97 86.83,417.16 C87.95,418.33 89.09,419.49 90.23,420.64 C89.05,419.50 87.85,418.32 86.60,417.10 C70.04,400.83 67.90,398.52 65.54,394.41 C64.56,392.72 61.80,390.26 59.40,388.95 C56.53,387.38 54.68,385.53 53.99,383.53 C53.14,381.09 52.74,380.79 51.98,382.00 C51.46,382.83 51.02,384.32 51.02,385.32 C50.99,387.85 55.82,395.83 58.11,397.06 C59.15,397.61 60.00,399.00 60.00,400.13 C60.00,401.26 60.90,403.33 62.00,404.73 C63.10,406.13 64.00,407.77 64.01,408.38 C64.01,408.76 64.58,409.67 65.57,410.96 C41.91,382.32 25.87,350.27 17.11,314.30 C11.86,292.74 10.60,281.73 10.56,257.00 C10.52,233.69 11.27,225.68 15.48,204.50 C16.78,197.90 18.41,188.45 19.08,183.50 C19.75,178.55 20.42,174.95 20.56,175.50 C20.71,176.05 21.11,177.77 21.45,179.32 C22.33,183.28 24.16,182.18 25.44,176.94 C26.42,172.89 26.77,172.52 29.38,172.70 C30.95,172.82 32.38,173.05 32.55,173.22 C32.73,173.39 32.12,177.90 31.22,183.23 C29.23,194.88 29.75,197.56 36.87,212.50 C46.26,232.20 60.05,251.09 76.70,267.05 C96.11,285.67 110.91,295.53 166.00,326.53 C197.38,344.19 214.70,356.62 229.51,372.12 C241.16,384.31 249.83,398.31 255.56,414.26 ZM 455.10 413.70 C455.50,412.70 457.10,410.09 459.00,407.38 C461.20,404.24 463.00,400.85 463.00,399.85 C463.00,398.85 464.40,395.75 466.12,392.96 C469.20,387.96 470.77,379.59 468.85,378.41 C468.38,378.12 468.00,378.68 468.00,379.65 C468.00,380.63 466.88,382.57 465.51,383.96 C460.25,389.31 455.39,394.80 452.57,398.58 C444.87,408.90 434.90,419.77 426.62,426.86 C420.97,431.70 413.93,436.95 407.54,441.29 C414.04,436.86 421.25,431.46 427.05,426.46 C436.87,418.00 450.70,402.21 454.84,394.73 C456.13,392.40 459.12,387.12 461.50,383.00 C471.93,364.88 482.00,333.49 482.00,319.08 C482.00,312.48 473.96,295.02 463.55,279.03 C442.54,246.75 419.04,226.91 366.50,197.11 C341.99,183.20 339.94,181.97 341.50,182.13 C343.88,182.38 345.07,181.93 344.50,181.00 C344.16,180.45 344.41,180.00 345.05,180.00 C345.70,180.00 345.28,179.21 344.13,178.25 C342.03,176.50 342.03,176.50 345.52,174.77 C347.48,173.80 349.00,173.50 349.00,174.08 C349.00,174.65 349.56,174.78 350.25,174.37 C351.24,173.77 351.25,173.93 350.27,175.13 C349.33,176.29 349.32,176.92 350.22,177.82 C350.87,178.47 351.80,179.00 352.30,179.00 C352.79,179.00 354.39,179.85 355.85,180.90 C359.03,183.16 361.98,183.77 363.90,182.57 C364.84,181.98 365.08,182.06 364.63,182.78 C364.23,183.43 364.68,183.84 365.73,183.77 C368.02,183.64 390.88,196.78 407.36,207.70 C439.54,229.04 462.64,252.47 477.86,279.23 C482.09,286.65 483.21,287.28 482.45,281.82 C476.73,240.72 462.18,210.06 434.65,181.08 C429.65,175.81 426.20,172.06 426.98,172.75 C428.71,174.27 432.00,174.40 432.00,172.94 C432.00,172.36 432.51,172.20 433.13,172.58 C433.90,173.06 433.74,173.57 432.63,174.19 C430.74,175.25 430.43,177.12 432.20,176.75 C432.87,176.61 433.44,176.95 433.47,177.50 C433.60,179.57 435.12,180.89 436.78,180.36 C438.24,179.89 438.27,179.97 437.00,180.89 C436.07,181.56 435.95,181.98 436.69,181.98 C437.35,181.99 438.10,181.64 438.38,181.20 C439.09,180.04 437.38,177.64 436.31,178.31 C435.81,178.62 435.30,177.36 435.17,175.52 C434.97,172.51 435.18,172.22 437.22,172.68 C442.28,173.79 442.33,173.85 440.58,176.52 C439.68,177.89 439.29,178.96 439.72,178.89 C442.66,178.41 446.00,179.20 446.00,180.38 C446.00,181.14 446.90,182.00 448.00,182.29 C451.76,183.27 450.99,182.14 439.60,170.00 L 433.50 163.50 L 439.37 169.00 C459.23,187.62 476.87,215.48 486.11,242.85 L 490.04 254.50 L 489.49 243.50 C489.18,237.45 488.25,227.77 487.42,222.00 C486.00,212.10 479.71,184.96 478.31,182.70 C477.92,182.05 478.32,181.91 479.39,182.32 C480.49,182.74 480.86,182.59 480.44,181.90 C480.07,181.30 479.79,178.94 479.81,176.66 L 479.85 172.55 L 479.91 172.54 C482.17,172.38 484.63,171.73 485.38,171.10 C487.57,169.28 488.15,173.58 486.18,177.01 C484.85,179.32 484.77,180.17 485.75,181.15 C486.74,182.14 487.26,182.02 488.31,180.59 C489.48,178.99 489.93,179.80 492.26,187.64 C498.82,209.70 501.48,229.44 501.48,256.00 C501.48,278.22 500.67,286.61 496.52,307.50 C495.21,314.10 493.84,321.98 493.48,325.00 C489.84,355.38 475.49,387.96 455.10,413.70 ZM 336.25 173.52 C335.84,173.52 334.87,173.93 334.10,174.42 C333.18,175.00 332.92,174.94 333.34,174.26 C333.70,173.68 333.29,172.94 332.43,172.61 C329.95,171.66 331.75,170.11 334.49,170.84 C336.73,171.44 338.07,173.48 336.25,173.52 ZM 479.83 172.55 L 476.71 178.44 L 475.83 176.07 C474.74,173.11 474.93,172.92 479.83,172.55 ZM 423.32 444.33 C430.28,438.96 437.20,432.91 443.25,426.82 C445.67,424.39 447.93,422.05 449.81,420.06 C446.14,424.27 442.31,428.25 438.33,431.96 C434.35,435.69 428.94,440.11 423.32,444.33 ZM 72.36 418.87 C79.46,426.62 89.50,436.69 96.04,442.25 C105.00,449.87 107.48,452.03 110.14,453.98 C109.29,453.39 108.70,452.96 108.50,452.80 C95.06,442.07 83.02,430.77 72.36,418.87 ZM 259.63 427.88 C262.55,439.94 264.00,453.00 264.00,467.09 C264.00,453.75 262.33,439.59 259.63,427.88 ZM 154.92 466.86 C171.64,474.87 189.40,480.86 208.12,484.79 C205.77,484.34 203.68,483.90 202.00,483.49 C185.11,479.41 169.70,473.98 154.92,466.86 ZM 238.82 489.39 C241.84,489.69 244.32,489.88 245.61,489.90 L 250.72 490.00 L 251.21 485.90 L 250.83 490.00 L 246.95 490.00 C245.24,490.00 242.36,489.77 238.82,489.39 ZM 109.81 438.32 C113.85,441.58 117.98,444.70 122.19,447.67 C117.94,444.70 113.92,441.68 109.81,438.32 ZM 251.77 479.33 C251.85,477.68 251.90,475.87 251.93,473.98 C251.91,475.89 251.86,477.69 251.77,479.33 Z" fill="rgb(99,158,241)"/>
<path d="M 479.83 172.55 C475.81,172.85 474.96,173.04 475.39,174.73 C462.64,140.15 441.82,108.76 414.50,83.93 C381.45,53.89 340.92,33.60 298.82,26.01 C285.79,23.67 262.24,21.42 261.23,22.43 C260.83,22.84 260.52,32.24 260.54,43.33 C260.60,71.68 264.00,87.52 274.26,107.25 C286.87,131.50 305.68,148.37 350.41,174.27 C350.36,174.30 350.31,174.33 350.25,174.37 C349.56,174.78 349.00,174.65 349.00,174.08 C349.00,173.50 347.48,173.80 345.52,174.77 C342.03,176.50 342.03,176.50 344.13,178.25 C345.28,179.21 345.70,180.00 345.05,180.00 C344.41,180.00 344.16,180.45 344.50,181.00 C345.07,181.93 343.88,182.38 341.50,182.13 C340.97,182.08 340.86,182.19 341.89,182.89 C341.27,182.51 340.80,182.21 340.50,182.00 C338.30,180.50 334.92,178.48 333.00,177.51 C325.72,173.84 303.18,158.46 295.29,151.79 C266.86,127.75 253.30,101.89 249.02,63.50 C246.99,45.34 248.55,15.26 251.70,11.78 C253.62,9.66 261.38,9.44 278.50,11.02 C337.13,16.42 390.63,42.08 432.04,84.64 C456.80,110.09 474.54,138.08 486.53,170.70 C486.23,170.61 485.84,170.72 485.38,171.10 C484.63,171.73 482.17,172.38 479.91,172.54 L 479.85 172.55 L 479.81 176.66 C479.79,178.94 480.07,181.30 480.44,181.90 C480.86,182.59 480.49,182.74 479.39,182.32 C478.32,181.91 477.92,182.05 478.31,182.70 C478.85,183.57 480.11,188.09 481.53,193.91 C480.10,188.69 478.49,183.52 476.71,178.43 L 478.28 175.47 ZM 31.23 183.21 C30.51,187.40 30.12,190.43 30.24,193.28 C30.11,190.43 30.50,187.41 31.22,183.23 C32.12,177.90 32.73,173.39 32.55,173.22 C32.38,173.05 30.95,172.82 29.38,172.70 C26.77,172.52 26.42,172.89 25.44,176.94 C24.16,182.18 22.33,183.28 21.45,179.32 C21.16,178.00 20.82,176.55 20.64,175.81 C22.86,165.78 26.11,154.64 29.41,146.09 C44.27,107.62 73.89,73.51 109.24,54.19 C112.95,52.16 115.99,50.23 115.99,49.90 C116.00,49.58 109.81,47.85 102.25,46.08 C91.59,43.57 88.01,42.31 86.33,40.46 C83.89,37.78 84.16,35.07 87.14,32.37 C89.00,30.69 90.07,30.85 113.29,36.43 C126.61,39.63 138.24,42.62 139.13,43.09 C143.16,45.20 142.31,48.22 131.11,71.32 C119.71,94.84 118.81,96.02 113.66,94.06 C108.71,92.18 109.13,89.09 116.34,74.42 C119.97,67.04 122.54,61.00 122.06,61.00 C121.58,61.00 118.55,62.50 115.31,64.32 C70.57,89.61 39.84,133.06 31.23,183.21 ZM 446.84 195.09 C441.60,188.50 435.77,182.15 429.31,175.95 C415.65,162.85 394.65,149.37 378.00,143.01 C376.08,142.27 373.71,141.00 372.75,140.18 C370.40,138.18 370.53,133.73 373.00,131.50 C374.79,129.88 375.47,129.82 379.24,130.95 C381.57,131.65 388.69,134.84 395.06,138.03 C409.73,145.39 423.14,154.51 435.05,165.16 L 439.60 170.00 C450.99,182.14 451.76,183.27 448.00,182.29 C446.90,182.00 446.00,181.14 446.00,180.38 C446.00,179.20 442.66,178.41 439.72,178.89 C439.29,178.96 439.68,177.89 440.58,176.52 C442.33,173.85 442.28,173.79 437.22,172.68 C435.18,172.22 434.97,172.51 435.17,175.52 C435.30,177.36 435.81,178.62 436.31,178.31 C437.38,177.64 439.09,180.04 438.38,181.20 C438.10,181.64 437.35,181.99 436.69,181.98 C435.95,181.98 436.07,181.56 437.00,180.89 C438.27,179.97 438.24,179.89 436.78,180.36 C435.12,180.89 433.60,179.57 433.47,177.50 C433.44,176.95 432.87,176.61 432.20,176.75 C430.43,177.12 430.74,175.25 432.63,174.19 C433.74,173.57 433.90,173.06 433.13,172.58 C432.51,172.20 432.00,172.36 432.00,172.94 C432.00,174.40 428.71,174.27 426.98,172.75 C426.20,172.06 429.65,175.81 434.65,181.08 C439.04,185.69 443.10,190.35 446.84,195.09 ZM 350.77 174.49 C354.80,176.82 359.04,179.22 363.50,181.71 C363.83,181.89 364.15,182.07 364.47,182.26 C364.33,182.32 364.14,182.42 363.90,182.57 C361.98,183.77 359.03,183.16 355.85,180.90 C354.39,179.85 352.79,179.00 352.30,179.00 C351.80,179.00 350.87,178.47 350.22,177.82 C349.32,176.92 349.33,176.29 350.27,175.13 C350.49,174.87 350.65,174.65 350.77,174.49 ZM 490.15 181.20 C489.43,179.54 489.00,179.65 488.31,180.59 C487.26,182.02 486.74,182.14 485.75,181.15 C484.77,180.17 484.85,179.32 486.18,177.01 C486.95,175.68 487.33,174.21 487.38,173.02 C487.98,174.72 488.57,176.43 489.15,178.16 C489.49,179.18 489.82,180.19 490.15,181.20 ZM 336.25 173.52 C338.07,173.48 336.73,171.44 334.49,170.84 C331.75,170.11 329.95,171.66 332.43,172.61 C333.29,172.94 333.70,173.68 333.34,174.26 C332.92,174.94 333.18,175.00 334.10,174.42 C334.87,173.93 335.84,173.52 336.25,173.52 ZM 404.60 205.89 C422.16,217.12 433.98,226.54 445.43,237.92 C434.51,227.35 421.85,217.31 407.36,207.70 C406.45,207.11 405.53,206.50 404.60,205.89 ZM 454.99 186.08 C468.47,202.74 479.02,221.87 486.11,242.85 C479.38,222.94 468.22,202.77 454.99,186.08 ZM 364.81 182.44 C367.36,183.87 369.82,185.25 372.21,186.60 C368.76,184.80 366.39,183.73 365.73,183.77 C364.68,183.84 364.23,183.43 364.63,182.78 C364.72,182.65 364.78,182.53 364.81,182.44 ZM 11.69 227.42 C12.44,219.68 13.64,212.65 15.42,204.78 C13.59,214.04 12.42,220.78 11.69,227.42 ZM 482.66 284.00 C482.62,283.34 482.54,282.57 482.43,281.75 C478.96,256.93 472.13,235.60 461.28,216.44 C472.23,235.69 478.97,256.83 482.45,281.82 C482.57,282.71 482.64,283.43 482.66,284.00 ZM 415.85 228.43 C436.80,244.06 450.64,259.20 463.55,279.03 C450.74,259.34 436.68,244.03 415.85,228.43 ZM 479.23 281.36 C480.05,282.76 480.86,284.02 481.47,284.87 C480.70,284.01 479.52,282.14 477.86,279.23 C476.71,277.20 475.51,275.19 474.26,273.20 C475.87,275.74 477.50,278.44 479.23,281.36 ZM 352.75 189.29 C356.27,191.30 360.77,193.86 366.50,197.11 C368.82,198.42 371.09,199.72 373.30,201.00 C371.08,199.72 368.80,198.43 366.48,197.12 C361.64,194.39 356.88,191.67 352.75,189.29 ZM 17.11 314.30 C13.09,297.81 11.42,287.67 10.84,272.79 C11.43,287.63 13.12,297.92 17.11,314.30 ZM 486.90 218.77 C487.11,219.98 487.29,221.06 487.42,222.00 C487.64,223.47 487.85,225.19 488.06,227.04 C487.73,224.27 487.34,221.52 486.90,218.77 ZM 18.93 184.53 C18.78,185.58 18.60,186.77 18.40,188.06 C18.42,187.89 18.45,187.72 18.47,187.55 C18.61,186.57 18.76,185.57 18.93,184.53 ZM 464.39 259.03 C466.17,261.33 467.88,263.66 469.58,266.10 C467.92,263.72 466.19,261.36 464.39,259.03 ZM 500.95 237.02 C501.31,243.01 501.48,249.28 501.48,256.00 C501.48,249.29 501.31,243.01 500.95,237.02 Z" fill="rgb(116,107,243)"/>
<path d="M 0.00 256.00 L 0.00 0.00 L 256.00 0.00 L 512.00 0.00 L 512.00 256.00 L 512.00 512.00 L 256.00 512.00 L 0.00 512.00 L 0.00 256.00 ZM 260.27 500.25 C262.30,497.99 264.00,482.90 264.00,467.09 C264.00,427.63 252.62,396.29 229.51,372.12 C214.70,356.62 197.38,344.19 166.00,326.53 C110.91,295.53 96.11,285.67 76.70,267.05 C60.05,251.09 46.26,232.20 36.87,212.50 C29.74,197.54 29.23,194.87 31.23,183.21 C39.84,133.06 70.57,89.61 115.31,64.32 C118.55,62.50 121.58,61.00 122.06,61.00 C122.54,61.00 119.97,67.04 116.34,74.42 C109.13,89.09 108.71,92.18 113.66,94.06 C118.81,96.02 119.71,94.84 131.11,71.32 C142.31,48.22 143.16,45.20 139.13,43.09 C138.24,42.62 126.61,39.63 113.29,36.43 C90.07,30.85 89.00,30.69 87.14,32.37 C84.16,35.07 83.89,37.78 86.33,40.46 C88.01,42.31 91.59,43.57 102.25,46.08 C109.81,47.85 116.00,49.58 115.99,49.90 C115.99,50.23 112.95,52.16 109.24,54.19 C73.89,73.51 44.27,107.62 29.41,146.09 C24.73,158.21 20.15,175.55 18.47,187.55 C17.69,193.10 16.39,200.54 15.58,204.08 C11.77,220.68 10.56,233.37 10.57,256.50 C10.58,281.78 11.79,292.49 17.11,314.30 C30.41,368.90 60.47,414.47 108.50,452.80 C109.05,453.24 112.43,455.59 116.00,458.04 C148.82,480.45 183.67,494.12 221.50,499.42 C235.35,501.36 238.38,501.62 249.60,501.83 C257.13,501.97 258.96,501.70 260.27,500.25 ZM 424.60 480.23 C427.06,478.59 428.05,475.20 426.84,472.55 C425.60,469.82 425.94,469.95 407.75,465.43 C401.84,463.96 397.00,462.40 397.00,461.96 C397.00,461.53 400.04,459.49 403.75,457.44 C413.33,452.15 429.40,440.31 438.33,431.96 C467.45,404.77 488.91,363.15 493.48,325.00 C493.84,321.98 495.21,314.10 496.52,307.50 C500.67,286.61 501.48,278.22 501.48,256.00 C501.48,226.09 498.16,205.13 489.15,178.16 C477.18,142.32 458.67,112.01 432.04,84.64 C390.63,42.08 337.13,16.42 278.50,11.02 C261.38,9.44 253.62,9.66 251.70,11.78 C248.55,15.26 246.99,45.34 249.02,63.50 C253.30,101.89 266.86,127.75 295.29,151.79 C303.18,158.46 325.72,173.84 333.00,177.51 C334.92,178.48 338.30,180.50 340.50,182.00 C342.70,183.50 354.39,190.30 366.48,197.12 C418.29,226.32 442.58,246.82 463.55,279.03 C473.96,295.02 482.00,312.48 482.00,319.08 C482.00,333.49 471.93,364.88 461.50,383.00 C459.12,387.12 456.13,392.40 454.84,394.73 C450.70,402.21 436.87,418.00 427.05,426.46 C413.39,438.23 391.92,452.25 390.20,450.53 C389.87,450.20 392.48,444.11 396.00,437.00 C401.57,425.75 402.28,423.70 401.43,421.29 C400.39,418.31 398.29,417.46 394.39,418.44 C392.37,418.94 390.03,422.90 381.05,440.95 C370.12,462.91 369.36,465.39 372.65,468.13 C373.99,469.23 418.65,480.81 422.00,480.92 C422.83,480.95 424.00,480.64 424.60,480.23 ZM 227.00 488.02 C172.14,480.73 124.82,456.81 86.83,417.16 C53.12,381.97 31.49,337.79 24.60,290.00 C22.90,278.21 21.42,258.22 22.31,259.03 C22.63,259.32 24.47,264.37 26.39,270.25 C40.73,314.01 74.66,353.00 116.50,373.79 C134.55,382.76 138.55,383.58 141.09,378.84 C143.02,375.22 141.35,372.13 136.22,369.83 C115.49,360.55 102.59,352.80 88.94,341.43 C59.31,316.78 38.28,280.56 31.61,242.75 C28.15,223.15 28.35,222.72 35.31,234.76 C42.75,247.63 51.67,258.83 65.42,272.55 C87.26,294.34 104.01,305.66 163.00,338.50 C197.54,357.73 221.23,377.48 233.74,397.50 C242.54,411.56 248.69,429.61 250.96,447.97 C252.12,457.39 252.32,476.66 251.35,484.75 L 250.72 490.00 L 245.61 489.90 C242.80,489.85 234.43,489.00 227.00,488.02 ZM 479.23 281.36 C469.70,265.16 462.71,255.89 450.01,242.60 C429.87,221.52 410.80,208.10 363.50,181.71 C309.22,151.42 288.03,133.75 274.26,107.25 C264.00,87.52 260.60,71.68 260.54,43.33 C260.52,32.24 260.83,22.84 261.23,22.43 C262.24,21.42 285.79,23.67 298.82,26.01 C340.92,33.60 381.45,53.89 414.50,83.93 C459.14,124.49 486.42,182.56 489.49,243.50 L 490.04 254.50 L 486.11 242.85 C470.57,196.82 438.35,159.73 395.06,138.03 C388.69,134.84 381.57,131.65 379.24,130.95 C375.47,129.82 374.79,129.88 373.00,131.50 C370.53,133.73 370.40,138.18 372.75,140.18 C373.71,141.00 376.08,142.27 378.00,143.01 C394.65,149.37 415.65,162.85 429.31,175.95 C459.83,205.23 476.33,238.08 482.43,281.75 C482.76,284.09 482.78,286.00 482.49,286.00 C482.19,286.00 480.72,283.91 479.23,281.36 Z" fill="rgb(246,246,247)"/>
</g>
</svg>