<svg xmlns="http://www.w3.org/2000/svg" width="500" height="500" viewBox="0 0 500 500">
<g>
<path d="M 383.55 472.55 L 381.09 475.00 L 120.27 475.00 L 117.63 472.93 C115.51,471.26 115.00,470.01 115.00,466.50 L 115.00 462.14 L 109.60 462.70 C101.40,463.55 95.64,462.29 89.86,458.41 C84.71,454.94 84.70,454.94 82.60,456.90 C78.77,460.50 71.85,462.96 65.50,462.97 C55.22,462.99 45.81,457.17 40.71,447.63 C38.54,443.57 38.50,442.73 38.21,398.86 L 37.92 354.21 L 30.61 353.85 C21.35,353.38 15.02,349.82 10.53,342.55 L 7.50 337.66 L 7.50 246.50 L 10.16 241.46 C17.30,227.93 38.38,217.24 64.34,213.97 C73.96,212.76 104.30,213.16 111.75,214.60 C114.93,215.21 115.00,215.15 115.00,211.61 C115.00,209.33 115.74,207.26 117.00,206.00 C118.90,204.10 120.33,204.00 145.44,204.00 L 171.89 204.00 L 172.19 175.25 C172.49,147.49 172.58,146.35 174.79,142.20 C184.78,123.50 211.87,112.98 249.97,113.01 C272.27,113.02 290.29,116.31 304.65,122.99 C314.22,127.44 320.50,132.87 324.57,140.21 L 327.50 145.50 L 328.50 203.50 L 381.88 204.03 L 383.94 206.65 C385.07,208.09 386.00,210.55 386.00,212.12 L 386.00 214.97 L 392.25 214.23 C404.75,212.77 436.88,213.44 445.80,215.36 C464.53,219.40 477.45,225.43 484.95,233.63 C486.75,235.61 488.15,237.12 489.24,238.83 C493.00,244.76 493.00,253.09 492.98,291.30 L 492.98 292.43 L 492.98 295.21 C492.96,331.59 492.96,339.09 489.38,343.98 C488.36,345.37 487.05,346.55 485.37,348.12 C480.58,352.60 476.52,354.00 468.35,354.00 L 462.00 354.00 L 461.98 398.25 C461.96,439.11 461.81,442.81 460.11,446.57 C455.62,456.44 446.00,463.00 435.98,463.00 C429.38,463.00 422.70,460.93 418.52,457.60 L 415.54 455.22 L 411.52 457.97 C405.42,462.13 400.63,463.34 392.84,462.69 L 386.00 462.12 L 386.00 466.10 C386.00,469.00 385.33,470.76 383.55,472.55 ZM 58.87 445.49 C62.38,447.40 69.02,447.37 71.78,445.44 C76.82,441.91 77.00,440.49 77.00,405.18 C77.00,373.40 77.07,372.18 79.07,369.63 C81.86,366.10 87.10,366.01 90.55,369.45 L 93.00 371.91 L 93.00 440.20 L 96.40 443.60 C99.25,446.45 100.52,447.00 104.27,447.00 C107.27,447.00 109.59,446.32 111.37,444.93 L 114.00 442.85 L 114.00 336.99 C114.00,237.05 113.90,231.10 112.25,230.59 C108.86,229.54 92.41,228.02 84.50,228.02 C66.00,228.01 50.92,231.06 37.50,237.50 C26.85,242.61 23.90,245.41 23.09,251.23 C22.77,253.58 22.73,273.43 23.00,295.34 L 23.50 335.18 L 25.86 337.09 C29.15,339.75 31.68,339.48 35.08,336.08 L 38.00 333.15 L 38.00 274.15 L 40.63 272.07 C43.98,269.44 48.01,269.43 50.81,272.04 L 53.00 274.08 L 53.00 355.02 L 53.00 359.31 C53.00,433.17 53.00,441.32 56.93,444.33 C57.49,444.77 58.14,445.09 58.87,445.49 ZM 388.63 444.93 C390.41,446.32 392.73,447.00 395.73,447.00 C399.48,447.00 400.75,446.45 403.60,443.60 L 407.00 440.20 L 407.00 406.23 C407.00,373.39 407.07,372.18 409.07,369.63 C410.67,367.60 412.03,367.00 415.00,367.00 C417.97,367.00 419.33,367.60 420.93,369.63 C422.93,372.18 423.00,373.40 423.00,405.18 C423.00,440.49 423.18,441.91 428.22,445.44 C430.72,447.19 436.59,447.49 440.39,446.04 C441.77,445.52 443.71,443.60 444.70,441.79 C446.38,438.71 446.52,433.31 446.74,357.50 C446.88,312.95 447.20,275.56 447.47,274.42 C447.97,272.26 451.77,270.00 454.91,270.00 C455.91,270.00 457.90,270.92 459.32,272.04 L 461.92 274.08 L 462.21 304.13 L 462.50 334.18 L 465.31 336.59 C468.74,339.54 470.94,339.63 474.37,336.93 L 477.00 334.85 L 477.00 247.74 L 472.75 243.54 C461.48,232.40 428.45,225.79 399.71,228.92 C393.78,229.56 388.26,230.35 387.46,230.65 C386.19,231.14 386.00,245.15 386.00,337.03 L 386.00 442.85 ZM 258.00 445.00 L 258.00 459.00 L 370.00 459.00 L 370.00 347.00 L 326.91 347.00 L 324.34 344.43 C322.10,342.19 321.85,341.31 322.43,337.68 C322.79,335.38 325.13,329.11 327.63,323.75 C332.69,312.88 332.88,309.06 328.67,302.87 C324.71,297.06 321.61,295.50 314.00,295.50 C306.39,295.50 303.29,297.06 299.33,302.87 C295.13,309.04 295.31,312.88 300.33,323.75 C305.65,335.28 306.58,339.04 304.90,342.19 C302.46,346.78 301.60,346.93 279.25,346.97 L 258.00 347.00 L 258.00 375.69 L 263.25 373.10 C270.00,369.76 281.78,369.45 289.47,372.42 C295.71,374.82 303.39,381.93 306.85,388.48 C309.17,392.88 309.49,394.66 309.50,403.00 C309.50,411.92 309.29,412.88 306.09,418.80 C302.31,425.77 297.93,429.73 289.87,433.48 C282.32,437.00 271.69,437.00 264.15,433.49 C261.21,432.12 258.62,431.00 258.40,431.00 C258.18,431.00 258.00,437.30 258.00,445.00 ZM 180.59 382.96 C186.85,384.83 192.80,383.51 197.26,379.27 C204.45,372.44 204.95,365.10 199.03,353.37 C196.85,349.04 194.77,343.61 194.41,341.29 C193.82,337.51 194.07,336.78 196.80,334.04 L 199.85 331.00 L 242.00 331.00 L 242.00 317.00 C242.00,309.30 241.82,303.00 241.59,303.00 C241.37,303.00 238.94,304.16 236.20,305.59 C229.07,309.28 217.59,309.33 209.66,305.70 C202.88,302.60 196.22,296.13 192.95,289.47 C190.87,285.25 190.50,283.06 190.50,275.00 C190.51,266.66 190.83,264.88 193.15,260.48 C196.85,253.46 204.35,246.76 211.55,244.05 C219.42,241.08 229.56,241.54 236.95,245.19 L 242.00 247.69 L 242.00 219.00 L 130.00 219.00 L 130.00 331.00 L 172.15 331.00 L 175.20 334.04 C177.92,336.77 178.18,337.53 177.62,341.29 C177.27,343.61 175.20,349.10 173.02,353.50 C170.83,357.90 168.75,362.76 168.40,364.29 C167.01,370.39 173.92,380.96 180.59,382.96 ZM 130.00 347.00 L 130.00 459.00 L 242.00 459.00 L 242.00 416.85 L 245.03 413.82 C247.68,411.16 248.52,410.87 251.78,411.46 C253.83,411.83 259.80,414.12 265.06,416.56 C275.58,421.44 277.32,421.73 282.77,419.45 C290.10,416.39 294.00,410.89 294.00,403.61 C294.00,395.65 290.64,390.14 284.13,387.41 C278.51,385.06 273.86,385.68 264.85,389.99 C260.26,392.19 254.40,394.27 251.83,394.62 C247.70,395.18 246.86,394.95 244.58,392.67 L 242.00 390.09 L 242.00 347.00 L 228.00 347.00 C220.30,347.00 214.00,347.17 214.00,347.38 C214.00,347.59 215.18,350.33 216.62,353.48 C218.95,358.58 219.19,360.13 218.82,367.85 C218.47,375.02 217.91,377.41 215.51,381.80 C211.93,388.39 206.40,393.47 199.28,396.73 C194.42,398.96 192.81,399.19 184.66,398.82 C176.90,398.48 174.69,397.97 170.20,395.52 C159.22,389.52 153.86,380.80 153.20,367.85 C152.81,360.10 153.04,358.59 155.38,353.48 C156.82,350.33 158.00,347.59 158.00,347.38 C158.00,347.17 151.70,347.00 144.00,347.00 ZM 258.00 288.85 L 258.00 331.00 L 272.08 331.00 C279.83,331.00 285.99,330.66 285.78,330.25 C282.42,323.72 281.56,320.55 281.20,313.35 C280.85,306.12 281.11,304.50 283.53,299.12 C293.03,277.95 319.51,272.45 336.52,288.12 C339.08,290.49 342.37,294.69 343.82,297.46 C346.14,301.87 346.47,303.68 346.49,312.00 C346.50,321.17 346.17,322.57 342.22,330.25 C342.01,330.66 348.17,331.00 355.93,331.00 L 370.02 331.00 L 369.50 219.50 L 258.00 218.98 L 258.00 262.09 L 255.42 264.67 C253.22,266.87 252.21,267.17 248.46,266.75 C246.04,266.48 240.03,264.34 235.10,261.99 C227.20,258.24 225.52,257.79 220.99,258.23 C211.91,259.10 206.00,265.59 206.00,274.70 C206.00,277.67 206.65,281.36 207.45,282.90 C209.91,287.66 215.48,291.80 220.42,292.54 C224.39,293.14 226.05,292.69 234.71,288.71 C240.09,286.23 246.20,283.91 248.28,283.55 C251.58,282.98 252.43,283.27 255.03,285.87 ZM 188.00 176.15 L 188.00 203.00 L 203.00 203.00 L 203.00 189.13 C203.00,176.62 203.20,175.01 205.07,172.63 C206.44,170.89 208.11,170.00 209.99,170.00 C217.63,170.00 219.00,173.04 219.00,189.95 L 219.00 203.00 L 280.85 203.00 L 281.18 188.41 C281.49,174.47 281.61,173.73 283.86,171.91 C287.15,169.25 291.57,169.48 294.55,172.45 C296.92,174.83 297.00,175.38 297.00,188.95 L 297.00 203.00 L 312.00 203.00 L 312.00 148.07 L 308.93 144.57 C300.89,135.42 274.19,127.98 249.50,128.02 C224.35,128.06 196.74,136.44 190.25,145.99 C188.05,149.22 188.00,149.95 188.00,176.15 ZM 423.20 202.89 C416.68,204.26 412.98,204.19 406.38,202.59 C377.65,195.62 366.50,160.66 386.03,138.76 C404.46,118.08 437.55,121.93 449.82,146.17 C455.86,158.10 456.11,169.52 450.60,181.57 C445.79,192.07 435.08,200.41 423.20,202.89 ZM 259.50 102.64 C242.13,107.28 222.26,97.45 214.18,80.22 C211.83,75.21 211.50,73.26 211.50,64.50 C211.50,55.74 211.83,53.79 214.18,48.78 C221.68,32.77 240.02,22.89 256.61,25.92 C269.80,28.34 279.87,35.92 285.74,47.88 C288.25,52.98 288.50,54.51 288.50,64.50 C288.50,74.65 288.27,75.96 285.56,81.49 C280.39,92.02 271.13,99.53 259.50,102.64 ZM 94.54 202.45 C87.60,204.26 83.41,204.29 76.50,202.61 C64.92,199.80 54.26,191.06 49.18,180.22 C46.83,175.21 46.50,173.26 46.50,164.48 C46.50,155.18 46.74,153.98 49.77,147.82 C53.94,139.34 62.64,131.07 70.72,127.90 C75.19,126.14 78.55,125.62 85.59,125.60 C93.91,125.57 95.25,125.85 101.49,128.92 C109.59,132.91 116.93,140.17 120.79,148.00 C123.22,152.92 123.50,154.60 123.50,164.00 C123.50,173.75 123.27,174.96 120.34,181.00 C114.84,192.29 106.32,199.38 94.54,202.45 ZM 240.17 85.40 C243.75,87.18 247.00,88.00 250.50,88.00 C256.88,88.00 265.02,84.16 268.61,79.44 C272.32,74.57 274.23,67.51 273.50,61.35 C271.65,45.94 255.00,36.73 240.76,43.25 C222.77,51.49 222.41,76.55 240.17,85.40 ZM 406.50 186.18 C416.21,190.75 429.41,186.36 435.47,176.55 C438.10,172.31 438.50,170.71 438.50,164.58 C438.50,158.66 438.05,156.74 435.75,152.82 C432.22,146.81 429.02,144.35 422.09,142.33 C411.21,139.16 400.06,143.92 394.75,154.00 C390.09,162.87 391.38,172.19 398.33,179.76 C400.62,182.26 404.30,185.15 406.50,186.18 ZM 75.17 185.40 C90.69,193.13 108.33,182.01 108.34,164.50 C108.35,145.79 87.83,134.91 72.22,145.35 C57.39,155.27 59.01,177.35 75.17,185.40 Z" fill="rgb(6,4,5)"/>
<path d="M 58.87 445.49 C58.14,445.09 57.49,444.77 56.93,444.33 C53.00,441.32 53.00,433.17 53.00,359.31 L 53.00 355.02 L 53.00 274.08 L 50.81 272.04 C48.01,269.43 43.98,269.44 40.63,272.07 L 38.00 274.15 L 38.00 333.15 L 35.08 336.08 C31.68,339.48 29.15,339.75 25.86,337.09 L 23.50 335.18 L 23.00 295.34 C22.73,273.43 22.77,253.58 23.09,251.23 C23.90,245.41 26.85,242.61 37.50,237.50 C50.92,231.06 66.00,228.01 84.50,228.02 C92.41,228.02 108.86,229.54 112.25,230.59 C113.90,231.10 114.00,237.05 114.00,336.99 L 114.00 442.85 L 111.37 444.93 C109.59,446.32 107.27,447.00 104.27,447.00 C100.52,447.00 99.25,446.45 96.40,443.60 L 93.00 440.20 L 93.00 371.91 L 90.55 369.45 C87.10,366.01 81.86,366.10 79.07,369.63 C77.07,372.18 77.00,373.40 77.00,405.18 C77.00,440.49 76.82,441.91 71.78,445.44 C69.02,447.37 62.38,447.40 58.87,445.49 ZM 388.63 444.93 L 386.00 442.85 L 386.00 337.03 C386.00,245.15 386.19,231.14 387.46,230.65 C388.26,230.35 393.78,229.56 399.71,228.92 C428.45,225.79 461.48,232.40 472.75,243.54 L 477.00 247.74 L 477.00 334.85 L 474.37 336.93 C470.94,339.63 468.74,339.54 465.31,336.59 L 462.50 334.18 L 462.21 304.13 L 461.92 274.08 L 459.32 272.04 C457.90,270.92 455.91,270.00 454.91,270.00 C451.77,270.00 447.97,272.26 447.47,274.42 C447.20,275.56 446.88,312.95 446.74,357.50 C446.52,433.31 446.38,438.71 444.70,441.79 C443.71,443.60 441.77,445.52 440.39,446.04 C436.59,447.49 430.72,447.19 428.22,445.44 C423.18,441.91 423.00,440.49 423.00,405.18 C423.00,373.40 422.93,372.18 420.93,369.63 C419.33,367.60 417.97,367.00 415.00,367.00 C412.03,367.00 410.67,367.60 409.07,369.63 C407.07,372.18 407.00,373.39 407.00,406.23 L 407.00 440.20 L 403.60 443.60 C400.75,446.45 399.48,447.00 395.73,447.00 C392.73,447.00 390.41,446.32 388.63,444.93 ZM 258.00 288.85 L 255.03 285.87 C252.43,283.27 251.58,282.98 248.28,283.55 C246.20,283.91 240.09,286.23 234.71,288.71 C226.05,292.69 224.39,293.14 220.42,292.54 C215.48,291.80 209.91,287.66 207.45,282.90 C206.65,281.36 206.00,277.67 206.00,274.70 C206.00,265.59 211.91,259.10 220.99,258.23 C225.52,257.79 227.20,258.24 235.10,261.99 C240.03,264.34 246.04,266.48 248.46,266.75 C252.21,267.17 253.22,266.87 255.42,264.67 L 258.00 262.09 L 258.00 218.98 L 369.50 219.50 L 370.02 331.00 L 355.93 331.00 C348.17,331.00 342.01,330.66 342.22,330.25 C346.17,322.57 346.50,321.17 346.49,312.00 C346.47,303.68 346.14,301.87 343.82,297.46 C342.37,294.69 339.08,290.49 336.52,288.12 C319.51,272.45 293.03,277.95 283.53,299.12 C281.11,304.50 280.85,306.12 281.20,313.35 C281.56,320.55 282.42,323.72 285.78,330.25 C285.99,330.66 279.83,331.00 272.08,331.00 L 258.00 331.00 ZM 188.00 176.15 C188.00,149.95 188.05,149.22 190.25,145.99 C196.74,136.44 224.35,128.06 249.50,128.02 C274.19,127.98 300.89,135.42 308.93,144.57 L 312.00 148.07 L 312.00 203.00 L 297.00 203.00 L 297.00 188.95 C297.00,175.38 296.92,174.83 294.55,172.45 C291.57,169.48 287.15,169.25 283.86,171.91 C281.61,173.73 281.49,174.47 281.18,188.41 L 280.85 203.00 L 219.00 203.00 L 219.00 189.95 C219.00,173.04 217.63,170.00 209.99,170.00 C208.11,170.00 206.44,170.89 205.07,172.63 C203.20,175.01 203.00,176.62 203.00,189.13 L 203.00 203.00 L 188.00 203.00 Z" fill="rgb(130,207,236)"/>
<path d="M 258.00 445.00 C258.00,437.30 258.18,431.00 258.40,431.00 C258.62,431.00 261.21,432.12 264.15,433.49 C271.69,437.00 282.32,437.00 289.87,433.48 C297.93,429.73 302.31,425.77 306.09,418.80 C309.29,412.88 309.50,411.92 309.50,403.00 C309.49,394.66 309.17,392.88 306.85,388.48 C303.39,381.93 295.71,374.82 289.47,372.42 C281.78,369.45 270.00,369.76 263.25,373.10 L 258.00 375.69 L 258.00 347.00 L 279.25 346.97 C301.60,346.93 302.46,346.78 304.90,342.19 C306.58,339.04 305.65,335.28 300.33,323.75 C295.31,312.88 295.13,309.04 299.33,302.87 C303.29,297.06 306.39,295.50 314.00,295.50 C321.61,295.50 324.71,297.06 328.67,302.87 C332.88,309.06 332.69,312.88 327.63,323.75 C325.13,329.11 322.79,335.38 322.43,337.68 C321.85,341.31 322.10,342.19 324.34,344.43 L 326.91 347.00 L 370.00 347.00 L 370.00 459.00 L 258.00 459.00 ZM 180.59 382.96 C173.92,380.96 167.01,370.39 168.40,364.29 C168.75,362.76 170.83,357.90 173.02,353.50 C175.20,349.10 177.27,343.61 177.62,341.29 C178.18,337.53 177.92,336.77 175.20,334.04 L 172.15 331.00 L 130.00 331.00 L 130.00 219.00 L 242.00 219.00 L 242.00 247.69 L 236.95 245.19 C229.56,241.54 219.42,241.08 211.55,244.05 C204.35,246.76 196.85,253.46 193.15,260.48 C190.83,264.88 190.51,266.66 190.50,275.00 C190.50,283.06 190.87,285.25 192.95,289.47 C196.22,296.13 202.88,302.60 209.66,305.70 C217.59,309.33 229.07,309.28 236.20,305.59 C238.94,304.16 241.37,303.00 241.59,303.00 C241.82,303.00 242.00,309.30 242.00,317.00 L 242.00 331.00 L 199.85 331.00 L 196.80 334.04 C194.07,336.78 193.82,337.51 194.41,341.29 C194.77,343.61 196.85,349.04 199.03,353.37 C204.95,365.10 204.45,372.44 197.26,379.27 C192.80,383.51 186.85,384.83 180.59,382.96 ZM 130.00 347.00 L 144.00 347.00 C151.70,347.00 158.00,347.17 158.00,347.38 C158.00,347.59 156.82,350.33 155.38,353.48 C153.04,358.59 152.81,360.10 153.20,367.85 C153.86,380.80 159.22,389.52 170.20,395.52 C174.69,397.97 176.90,398.48 184.66,398.82 C192.81,399.19 194.42,398.96 199.28,396.73 C206.40,393.47 211.93,388.39 215.51,381.80 C217.91,377.41 218.47,375.02 218.82,367.85 C219.19,360.13 218.95,358.58 216.62,353.48 C215.18,350.33 214.00,347.59 214.00,347.38 C214.00,347.17 220.30,347.00 228.00,347.00 L 242.00 347.00 L 242.00 390.09 L 244.58 392.67 C246.86,394.95 247.70,395.18 251.83,394.62 C254.40,394.27 260.26,392.19 264.85,389.99 C273.86,385.68 278.51,385.06 284.13,387.41 C290.64,390.14 294.00,395.65 294.00,403.61 C294.00,410.89 290.10,416.39 282.77,419.45 C277.32,421.73 275.58,421.44 265.06,416.56 C259.80,414.12 253.83,411.83 251.78,411.46 C248.52,410.87 247.68,411.16 245.03,413.82 L 242.00 416.85 L 242.00 459.00 L 130.00 459.00 Z" fill="rgb(240,166,116)"/>
<path d="M 0.00 250.00 L 0.00 0.00 L 250.00 0.00 L 500.00 0.00 L 500.00 250.00 L 500.00 500.00 L 250.00 500.00 L 0.00 500.00 L 0.00 250.00 ZM 383.55 472.55 C385.33,470.76 386.00,469.00 386.00,466.10 L 386.00 462.12 L 392.84 462.69 C400.63,463.34 405.42,462.13 411.52,457.97 L 415.54 455.22 L 418.52 457.60 C422.70,460.93 429.38,463.00 435.98,463.00 C446.00,463.00 455.62,456.44 460.11,446.57 C461.81,442.81 461.96,439.11 461.98,398.25 L 462.00 354.00 L 468.35 354.00 C476.52,354.00 480.58,352.60 485.37,348.12 C493.10,340.89 492.95,341.99 492.98,292.43 C493.00,242.06 493.06,242.51 484.95,233.63 C477.45,225.43 464.53,219.40 445.80,215.36 C436.88,213.44 404.75,212.77 392.25,214.23 L 386.00 214.97 L 386.00 212.12 C386.00,210.55 385.07,208.09 383.94,206.65 L 381.88 204.03 L 355.19 203.77 L 328.50 203.50 L 328.00 174.50 L 327.50 145.50 L 324.57 140.21 C320.50,132.87 314.22,127.44 304.65,122.99 C290.29,116.31 272.27,113.02 249.97,113.01 C211.87,112.98 184.78,123.50 174.79,142.20 C172.58,146.35 172.49,147.49 172.19,175.25 L 171.89 204.00 L 145.44 204.00 C120.33,204.00 118.90,204.10 117.00,206.00 C115.74,207.26 115.00,209.33 115.00,211.61 C115.00,215.15 114.93,215.21 111.75,214.60 C104.30,213.16 73.96,212.76 64.34,213.97 C38.38,217.24 17.30,227.93 10.16,241.46 L 7.50 246.50 L 7.50 292.08 L 7.50 337.66 L 10.53 342.55 C15.02,349.82 21.35,353.38 30.61,353.85 L 37.92 354.21 L 38.21 398.86 C38.50,442.73 38.54,443.57 40.71,447.63 C45.81,457.17 55.22,462.99 65.50,462.97 C71.85,462.96 78.77,460.50 82.60,456.90 C84.70,454.94 84.71,454.94 89.86,458.41 C95.64,462.29 101.40,463.55 109.60,462.70 L 115.00 462.14 L 115.00 466.50 C115.00,470.01 115.51,471.26 117.63,472.93 L 120.27 475.00 L 250.68 475.00 L 381.09 475.00 L 383.55 472.55 ZM 94.54 202.45 C106.32,199.38 114.84,192.29 120.34,181.00 C123.27,174.96 123.50,173.75 123.50,164.00 C123.50,154.60 123.22,152.92 120.79,148.00 C116.93,140.17 109.59,132.91 101.49,128.92 C95.25,125.85 93.91,125.57 85.59,125.60 C78.55,125.62 75.19,126.14 70.72,127.90 C62.64,131.07 53.94,139.34 49.77,147.82 C46.74,153.98 46.50,155.18 46.50,164.48 C46.50,173.26 46.83,175.21 49.18,180.22 C54.26,191.06 64.92,199.80 76.50,202.61 C83.41,204.29 87.60,204.26 94.54,202.45 ZM 423.20 202.89 C435.08,200.41 445.79,192.07 450.60,181.57 C456.11,169.52 455.86,158.10 449.82,146.17 C437.55,121.93 404.46,118.08 386.03,138.76 C366.50,160.66 377.65,195.62 406.38,202.59 C412.98,204.19 416.68,204.26 423.20,202.89 ZM 259.50 102.64 C271.13,99.53 280.39,92.02 285.56,81.49 C288.27,75.96 288.50,74.65 288.50,64.50 C288.50,54.51 288.25,52.98 285.74,47.88 C279.87,35.92 269.80,28.34 256.61,25.92 C240.02,22.89 221.68,32.77 214.18,48.78 C211.83,53.79 211.50,55.74 211.50,64.50 C211.50,73.26 211.83,75.21 214.18,80.22 C222.26,97.45 242.13,107.28 259.50,102.64 ZM 75.17 185.40 C59.01,177.35 57.39,155.27 72.22,145.35 C87.83,134.91 108.35,145.79 108.34,164.50 C108.33,182.01 90.69,193.13 75.17,185.40 ZM 406.50 186.18 C404.30,185.15 400.62,182.26 398.33,179.76 C391.38,172.19 390.09,162.87 394.75,154.00 C400.06,143.92 411.21,139.16 422.09,142.33 C429.02,144.35 432.22,146.81 435.75,152.82 C438.05,156.74 438.50,158.66 438.50,164.58 C438.50,170.71 438.10,172.31 435.47,176.55 C429.41,186.36 416.21,190.75 406.50,186.18 ZM 240.17 85.40 C222.41,76.55 222.77,51.49 240.76,43.25 C255.00,36.73 271.65,45.94 273.50,61.35 C274.23,67.51 272.32,74.57 268.61,79.44 C265.02,84.16 256.88,88.00 250.50,88.00 C247.00,88.00 243.75,87.18 240.17,85.40 Z" fill="rgb(254,253,252)"/>
</g>
</svg>